<svg width="30" height="30" viewBox="0 0 30 30" fill="none" xmlns="http://www.w3.org/2000/svg">
<g id="aplly 1">
<g id="Group">
<path id="Vector" d="M11.58 1.65021C4.8 3.36021 0.300004 10.2902 1.44 17.1602C2.94 26.1302 12.6 31.2602 20.85 27.4802C22.89 26.5502 25.8 23.8202 27 21.7502C28.89 18.4502 29.28 13.6502 27.9 10.2002C27.09 8.13021 26.73 7.68021 26.25 8.10021C25.95 8.34021 26.04 8.82021 26.64 10.2902C27.72 12.8102 27.75 17.0102 26.76 19.5002C25.41 22.8602 22.86 25.4102 19.5 26.7602C18.21 27.2702 17.25 27.4202 15 27.4202C12.75 27.4202 11.79 27.2702 10.5 26.7602C7.14 25.4102 4.59 22.8602 3.24 19.5002C2.31 17.1602 2.31 12.8402 3.24 10.5002C4.59 7.14021 7.14 4.59021 10.5 3.24021C11.73 2.76021 12.81 2.58021 14.85 2.58021C18 2.55021 19.86 3.09021 22.08 4.65021C23.49 5.67021 24.3 5.67021 23.91 4.68021C23.67 4.08021 21.54 2.73021 19.68 2.04021C17.67 1.26021 13.83 1.08021 11.58 1.65021Z" fill="white"/>
<path id="Vector_2" d="M20.1 11.5498L14.37 18.2998L11.91 16.0798C9.93 14.2498 9.39 13.8898 9.06 14.1898C8.7 14.4898 9.09 14.9698 11.37 17.1598C12.87 18.6298 14.25 19.7998 14.4 19.7998C14.82 19.7998 26.73 5.6398 26.61 5.2798C26.55 5.1298 26.37 4.9498 26.19 4.8898C26.01 4.8298 23.28 7.8298 20.1 11.5498Z" fill="white"/>
</g>
</g>
</svg>
