<svg width="41" height="40" viewBox="0 0 41 40" fill="none" xmlns="http://www.w3.org/2000/svg">
<g id="&#240;&#159;&#166;&#134; icon &#34;shopping cart&#34;">
<path id="Vector" d="M26.0159 21.6666C27.2659 21.6666 28.3659 20.9833 28.9325 19.9499L34.8992 9.13325C35.5159 8.03325 34.7159 6.66659 33.4492 6.66659H8.78254L7.21587 3.33325H1.76587V6.66659H5.0992L11.0992 19.3166L8.8492 23.3833C7.63254 25.6166 9.23254 28.3333 11.7659 28.3333H31.7659V24.9999H11.7659L13.5992 21.6666H26.0159ZM10.3659 9.99992H30.6159L26.0159 18.3333H14.3159L10.3659 9.99992ZM11.7659 29.9999C9.93254 29.9999 8.4492 31.4999 8.4492 33.3333C8.4492 35.1666 9.93254 36.6666 11.7659 36.6666C13.5992 36.6666 15.0992 35.1666 15.0992 33.3333C15.0992 31.4999 13.5992 29.9999 11.7659 29.9999ZM28.4325 29.9999C26.5992 29.9999 25.1159 31.4999 25.1159 33.3333C25.1159 35.1666 26.5992 36.6666 28.4325 36.6666C30.2659 36.6666 31.7659 35.1666 31.7659 33.3333C31.7659 31.4999 30.2659 29.9999 28.4325 29.9999Z" fill="black"/>
</g>
</svg>
