<svg width="50" height="50" viewBox="0 0 50 50" fill="none" xmlns="http://www.w3.org/2000/svg">
<g id="&#240;&#159;&#166;&#134; icon &#34;close&#34;">
<path id="Vector" d="M38.1248 11.8957C37.3123 11.0832 35.9998 11.0832 35.1873 11.8957L24.9998 22.0624L14.8123 11.8749C13.9998 11.0624 12.6873 11.0624 11.8748 11.8749C11.0623 12.6874 11.0623 13.9999 11.8748 14.8124L22.0623 24.9999L11.8748 35.1874C11.0623 35.9999 11.0623 37.3124 11.8748 38.1249C12.6873 38.9374 13.9998 38.9374 14.8123 38.1249L24.9998 27.9374L35.1873 38.1249C35.9998 38.9374 37.3123 38.9374 38.1248 38.1249C38.9373 37.3124 38.9373 35.9999 38.1248 35.1874L27.9373 24.9999L38.1248 14.8124C38.9164 14.0207 38.9164 12.6874 38.1248 11.8957Z" fill="black"/>
</g>
</svg>
