<svg width="20" height="20" viewBox="0 0 20 20" fill="none" xmlns="http://www.w3.org/2000/svg">
<g id="&#240;&#159;&#166;&#134; icon &#34;rounded facebook&#34;">
<path id="Vector" d="M15.006 0C15.691 0 16.3361 0.131422 16.9415 0.394265C17.5468 0.657109 18.0765 1.01553 18.5305 1.46953C18.9845 1.92354 19.3429 2.45321 19.6057 3.05854C19.8686 3.66388 20 4.30904 20 4.99403V14.9821C20 15.6671 19.8686 16.3162 19.6057 16.9295C19.3429 17.5428 18.9845 18.0765 18.5305 18.5305C18.0765 18.9845 17.5468 19.3429 16.9415 19.6057C16.3361 19.8686 15.691 20 15.006 20H4.99403C4.30904 20 3.66388 19.8686 3.05854 19.6057C2.45321 19.3429 1.92354 18.9845 1.46953 18.5305C1.01553 18.0765 0.657109 17.5428 0.394265 16.9295C0.131422 16.3162 0 15.6671 0 14.9821V4.99403C0 4.30904 0.131422 3.66388 0.394265 3.05854C0.657109 2.45321 1.01553 1.92354 1.46953 1.46953C1.92354 1.01553 2.45321 0.657109 3.05854 0.394265C3.66388 0.131422 4.30904 0 4.99403 0H15.006ZM13.7395 4.37276H11.6368C11.2226 4.37276 10.8403 4.44444 10.4898 4.58781C10.1394 4.73118 9.83672 4.91836 9.58184 5.14934C9.32696 5.38033 9.12386 5.64715 8.97252 5.94982C8.82119 6.25249 8.74552 6.55516 8.74552 6.85783V8.12425H6.88172V10.6093H8.74552V15.6272H11.2545V10.6093H13.1183V8.12425H11.2545V7.50299C11.2545 7.2959 11.3301 7.1366 11.4815 7.02509C11.6328 6.91358 11.7642 6.85783 11.8757 6.85783H13.7395V4.37276Z" fill="#F3E8FF"/>
</g>
</svg>
