<svg width="21" height="20" viewBox="0 0 21 20" fill="none" xmlns="http://www.w3.org/2000/svg">
<g id="&#240;&#159;&#166;&#134; icon &#34;rounded facebook&#34;">
<path id="Vector" d="M15.4571 0C16.1421 0 16.7873 0.131422 17.3926 0.394265C17.998 0.657109 18.5276 1.01553 18.9816 1.46953C19.4356 1.92354 19.7941 2.45321 20.0569 3.05854C20.3197 3.66388 20.4512 4.30904 20.4512 4.99403V14.9821C20.4512 15.6671 20.3197 16.3162 20.0569 16.9295C19.7941 17.5428 19.4356 18.0765 18.9816 18.5305C18.5276 18.9845 17.998 19.3429 17.3926 19.6057C16.7873 19.8686 16.1421 20 15.4571 20H5.4452C4.76021 20 4.11505 19.8686 3.50971 19.6057C2.90438 19.3429 2.37471 18.9845 1.92071 18.5305C1.4667 18.0765 1.10828 17.5428 0.845437 16.9295C0.582594 16.3162 0.451172 15.6671 0.451172 14.9821V4.99403C0.451172 4.30904 0.582594 3.66388 0.845437 3.05854C1.10828 2.45321 1.4667 1.92354 1.92071 1.46953C2.37471 1.01553 2.90438 0.657109 3.50971 0.394265C4.11505 0.131422 4.76021 0 5.4452 0H15.4571ZM14.1907 4.37276H12.088C11.6738 4.37276 11.2915 4.44444 10.941 4.58781C10.5906 4.73118 10.2879 4.91836 10.033 5.14934C9.77813 5.38033 9.57503 5.64715 9.42369 5.94982C9.27236 6.25249 9.19669 6.55516 9.19669 6.85783V8.12425H7.33289V10.6093H9.19669V15.6272H11.7057V10.6093H13.5695V8.12425H11.7057V7.50299C11.7057 7.2959 11.7813 7.1366 11.9327 7.02509C12.084 6.91358 12.2154 6.85783 12.3269 6.85783H14.1907V4.37276Z" fill="#581C87"/>
</g>
</svg>
