<svg width="20" height="20" viewBox="0 0 20 20" fill="none" xmlns="http://www.w3.org/2000/svg">
<g id="&#240;&#159;&#166;&#134; icon &#34;rounded instagram&#34;">
<path id="Vector" d="M13.3811 10.0119C13.3811 9.74114 13.3413 9.44644 13.2616 9.12784H14.2652V13.9546C14.2652 14.082 14.2214 14.1856 14.1338 14.2652C14.0462 14.3449 13.9387 14.3847 13.8112 14.3847H5.94982C5.82238 14.3847 5.71884 14.3449 5.63919 14.2652C5.55954 14.1856 5.51971 14.082 5.51971 13.9546V9.12784H6.4994C6.41975 9.44644 6.37993 9.74114 6.37993 10.0119C6.37993 10.4898 6.47153 10.9438 6.65472 11.374C6.83791 11.8041 7.08881 12.1744 7.40741 12.4851C7.72601 12.7957 8.10036 13.0426 8.53047 13.2258C8.96057 13.409 9.41458 13.5006 9.89247 13.5006C10.3704 13.5006 10.8244 13.409 11.2545 13.2258C11.6846 13.0426 12.055 12.7957 12.3656 12.4851C12.6762 12.1744 12.9231 11.8041 13.1063 11.374C13.2895 10.9438 13.3811 10.4898 13.3811 10.0119ZM9.89247 12.1864C9.5898 12.1864 9.30307 12.1306 9.03226 12.0191C8.76145 11.9076 8.52648 11.7523 8.32736 11.5532C8.12824 11.354 7.97292 11.1231 7.86141 10.8602C7.7499 10.5974 7.69415 10.3146 7.69415 10.0119C7.69415 9.70928 7.7499 9.42254 7.86141 9.15173C7.97292 8.88092 8.12824 8.64596 8.32736 8.44683C8.52648 8.24771 8.76145 8.09239 9.03226 7.98088C9.30307 7.86937 9.5898 7.81362 9.89247 7.81362C10.1951 7.81362 10.4779 7.86937 10.7407 7.98088C11.0036 8.09239 11.2346 8.24771 11.4337 8.44683C11.6328 8.64596 11.7881 8.88092 11.8996 9.15173C12.0112 9.42254 12.0669 9.70928 12.0669 10.0119C12.0669 10.3146 12.0112 10.5974 11.8996 10.8602C11.7881 11.1231 11.6328 11.354 11.4337 11.5532C11.2346 11.7523 11.0036 11.9076 10.7407 12.0191C10.4779 12.1306 10.1951 12.1864 9.89247 12.1864ZM13.8112 5.63919C13.9387 5.63919 14.0462 5.67901 14.1338 5.75866C14.2214 5.83831 14.2652 5.94186 14.2652 6.0693V7.38351C14.2652 7.51095 14.2214 7.6145 14.1338 7.69415C14.0462 7.7738 13.9387 7.81362 13.8112 7.81362H12.497C12.3696 7.81362 12.266 7.7738 12.1864 7.69415C12.1067 7.6145 12.0669 7.51095 12.0669 7.38351V6.0693C12.0669 5.94186 12.1067 5.83831 12.1864 5.75866C12.266 5.67901 12.3696 5.63919 12.497 5.63919H13.8112ZM14.9821 0C15.6671 0 16.3162 0.131422 16.9295 0.394265C17.5428 0.657109 18.0765 1.01553 18.5305 1.46953C18.9845 1.92354 19.3429 2.45321 19.6057 3.05854C19.8686 3.66388 20 4.30904 20 4.99403V14.9821C20 15.6671 19.8686 16.3162 19.6057 16.9295C19.3429 17.5428 18.9845 18.0765 18.5305 18.5305C18.0765 18.9845 17.5428 19.3429 16.9295 19.6057C16.3162 19.8686 15.6671 20 14.9821 20H4.99403C4.30904 20 3.66388 19.8686 3.05854 19.6057C2.45321 19.3429 1.92354 18.9845 1.46953 18.5305C1.01553 18.0765 0.657109 17.5428 0.394265 16.9295C0.131422 16.3162 0 15.6671 0 14.9821V4.99403C0 4.30904 0.131422 3.66388 0.394265 3.05854C0.657109 2.45321 1.01553 1.92354 1.46953 1.46953C1.92354 1.01553 2.45321 0.657109 3.05854 0.394265C3.66388 0.131422 4.30904 0 4.99403 0H14.9821ZM15.5795 5.63919C15.5795 5.2728 15.452 4.96217 15.1971 4.70729C14.9423 4.45241 14.6316 4.32497 14.2652 4.32497H5.51971C5.15333 4.32497 4.84269 4.45241 4.58781 4.70729C4.33294 4.96217 4.2055 5.2728 4.2055 5.63919V14.3847C4.2055 14.7511 4.33294 15.0617 4.58781 15.3166C4.84269 15.5715 5.15333 15.6989 5.51971 15.6989H14.2652C14.6316 15.6989 14.9423 15.5715 15.1971 15.3166C15.452 15.0617 15.5795 14.7511 15.5795 14.3847V5.63919Z" fill="#F3E8FF"/>
</g>
</svg>
