<svg width="21" height="20" viewBox="0 0 21 20" fill="none" xmlns="http://www.w3.org/2000/svg">
<g id="&#240;&#159;&#166;&#134; icon &#34;rounded instagram&#34;">
<path id="Vector" d="M14.3323 10.0119C14.3323 9.74114 14.2925 9.44644 14.2128 9.12784H15.2164V13.9546C15.2164 14.082 15.1726 14.1856 15.085 14.2652C14.9974 14.3449 14.8898 14.3847 14.7624 14.3847H6.90099C6.77355 14.3847 6.67001 14.3449 6.59036 14.2652C6.51071 14.1856 6.47089 14.082 6.47089 13.9546V9.12784H7.45057C7.37092 9.44644 7.3311 9.74114 7.3311 10.0119C7.3311 10.4898 7.4227 10.9438 7.60589 11.374C7.78909 11.8041 8.03998 12.1744 8.35858 12.4851C8.67718 12.7957 9.05153 13.0426 9.48164 13.2258C9.91175 13.409 10.3657 13.5006 10.8436 13.5006C11.3215 13.5006 11.7755 13.409 12.2057 13.2258C12.6358 13.0426 13.0061 12.7957 13.3168 12.4851C13.6274 12.1744 13.8743 11.8041 14.0575 11.374C14.2407 10.9438 14.3323 10.4898 14.3323 10.0119ZM10.8436 12.1864C10.541 12.1864 10.2542 12.1306 9.98343 12.0191C9.71262 11.9076 9.47766 11.7523 9.27853 11.5532C9.07941 11.354 8.92409 11.1231 8.81258 10.8602C8.70107 10.5974 8.64532 10.3146 8.64532 10.0119C8.64532 9.70928 8.70107 9.42254 8.81258 9.15173C8.92409 8.88092 9.07941 8.64596 9.27853 8.44683C9.47766 8.24771 9.71262 8.09239 9.98343 7.98088C10.2542 7.86937 10.541 7.81362 10.8436 7.81362C11.1463 7.81362 11.4291 7.86937 11.6919 7.98088C11.9548 8.09239 12.1857 8.24771 12.3849 8.44683C12.584 8.64596 12.7393 8.88092 12.8508 9.15173C12.9623 9.42254 13.0181 9.70928 13.0181 10.0119C13.0181 10.3146 12.9623 10.5974 12.8508 10.8602C12.7393 11.1231 12.584 11.354 12.3849 11.5532C12.1857 11.7523 11.9548 11.9076 11.6919 12.0191C11.4291 12.1306 11.1463 12.1864 10.8436 12.1864ZM14.7624 5.63919C14.8898 5.63919 14.9974 5.67901 15.085 5.75866C15.1726 5.83831 15.2164 5.94186 15.2164 6.0693V7.38351C15.2164 7.51095 15.1726 7.6145 15.085 7.69415C14.9974 7.7738 14.8898 7.81362 14.7624 7.81362H13.4482C13.3207 7.81362 13.2172 7.7738 13.1376 7.69415C13.0579 7.6145 13.0181 7.51095 13.0181 7.38351V6.0693C13.0181 5.94186 13.0579 5.83831 13.1376 5.75866C13.2172 5.67901 13.3207 5.63919 13.4482 5.63919H14.7624ZM15.9333 0C16.6182 0 17.2674 0.131422 17.8807 0.394265C18.494 0.657109 19.0276 1.01553 19.4816 1.46953C19.9356 1.92354 20.2941 2.45321 20.5569 3.05854C20.8197 3.66388 20.9512 4.30904 20.9512 4.99403V14.9821C20.9512 15.6671 20.8197 16.3162 20.5569 16.9295C20.2941 17.5428 19.9356 18.0765 19.4816 18.5305C19.0276 18.9845 18.494 19.3429 17.8807 19.6057C17.2674 19.8686 16.6182 20 15.9333 20H5.9452C5.26021 20 4.61505 19.8686 4.00971 19.6057C3.40438 19.3429 2.87471 18.9845 2.42071 18.5305C1.9667 18.0765 1.60828 17.5428 1.34544 16.9295C1.08259 16.3162 0.951172 15.6671 0.951172 14.9821V4.99403C0.951172 4.30904 1.08259 3.66388 1.34544 3.05854C1.60828 2.45321 1.9667 1.92354 2.42071 1.46953C2.87471 1.01553 3.40438 0.657109 4.00971 0.394265C4.61505 0.131422 5.26021 0 5.9452 0H15.9333ZM16.5306 5.63919C16.5306 5.2728 16.4032 4.96217 16.1483 4.70729C15.8934 4.45241 15.5828 4.32497 15.2164 4.32497H6.47089C6.1045 4.32497 5.79386 4.45241 5.53899 4.70729C5.28411 4.96217 5.15667 5.2728 5.15667 5.63919V14.3847C5.15667 14.7511 5.28411 15.0617 5.53899 15.3166C5.79386 15.5715 6.1045 15.6989 6.47089 15.6989H15.2164C15.5828 15.6989 15.8934 15.5715 16.1483 15.3166C16.4032 15.0617 16.5306 14.7511 16.5306 14.3847V5.63919Z" fill="#581C87"/>
</g>
</svg>
