<svg width="35" height="35" viewBox="0 0 35 35" fill="none" xmlns="http://www.w3.org/2000/svg">
<g id="invisible 1">
<g id="Group">
<path id="Vector" d="M1.1665 2.09962C1.1665 3.73295 32.5498 34.2996 33.3665 33.4829C33.8332 33.0163 32.7832 31.1496 31.1498 29.3996L27.9998 26.0163L30.4498 23.7996C34.6498 20.0663 35.2332 17.8496 33.1332 14.583C28.8165 8.04962 17.3832 3.96628 11.7832 6.99962C10.1498 7.81628 8.98317 7.34962 6.4165 4.66628C3.14984 1.28295 1.1665 0.232948 1.1665 2.09962ZM22.9832 11.8996C25.6665 14.3496 26.7165 20.2996 24.6165 21.4663C23.3332 22.2829 21.3498 19.9496 20.7665 16.9163C20.5332 15.6329 19.3665 14.4663 18.0832 14.233C15.0498 13.6496 12.7165 11.6663 13.5332 10.3829C14.6998 8.39962 20.2998 9.33295 22.9832 11.8996Z" fill="#581C87"/>
<path id="Vector_2" d="M1.86655 14.5828C-0.466784 18.1994 0.583216 20.7661 6.53322 25.1994C11.1999 28.8161 22.8665 30.7994 21.9332 27.8828C21.6999 26.9494 19.8332 26.1328 17.9665 25.8994C13.5332 25.3161 9.33322 21.3494 9.33322 17.4994C9.33322 11.5494 4.89988 9.91609 1.86655 14.5828Z" fill="#581C87"/>
</g>
</g>
</svg>
