<svg claswidth="67" height="40" viewBox="0 0 67 40" fill="none" xmlns="http://www.w3.org/2000/svg">
<g id="logo">
<g id="Group">
<path id="Vector" d="M55.8951 0.653023C54.2624 1.45302 52.1073 3.99996 49.8706 7.77139C49.2012 8.89792 48.6298 9.89384 48.5971 9.97547C48.5318 10.1877 43.7318 10.3836 43.7318 10.1877C43.7318 10.1061 44.2543 8.97955 44.8747 7.68976C45.5114 6.38363 45.9849 5.22445 45.9359 5.09384C45.7726 4.6367 45.3318 5.27343 44.091 7.78772C43.4216 9.14282 42.7686 10.3183 42.6053 10.3673C42.4584 10.4326 41.2012 10.5469 39.8135 10.6285C37.0379 10.8081 36.793 10.8408 36.9726 11.1183C37.0543 11.2653 37.8216 11.2816 39.7808 11.2C42.3441 11.0857 42.4584 11.0857 42.3767 11.3796C42.3277 11.5428 41.6257 13.1428 40.8257 14.9387C39.1277 18.7102 38.6706 19.9673 38.6706 20.8979C38.6706 21.7632 38.1155 22.302 36.2869 23.2163C34.8175 23.9347 34.1481 23.9673 33.691 23.2979C33.3155 22.7591 33.3971 22.1551 34.0339 20.9469C34.3767 20.3428 34.7686 19.5918 34.9318 19.2979C35.2747 18.6449 35.193 18.351 34.5726 18.0245C33.9849 17.7306 33.9686 17.3224 34.5237 16.8C35.0788 16.2775 35.7318 14.9877 35.7318 14.4C35.7318 13.8612 35.242 13.2734 34.6869 13.1265C34.4747 13.0775 34.0665 13.1428 33.7563 13.2734C32.4012 13.8449 31.4379 15.1673 31.4216 16.5224C31.4053 17.1428 31.34 17.3061 31.1277 17.3061C30.9808 17.3061 30.8175 17.2408 30.7522 17.1591C30.589 16.8816 31.3237 15.2163 33.7726 10.302C35.1114 7.64078 36.2543 5.20813 36.3359 4.89792C36.6788 3.5918 36.189 3.3469 34.9318 4.19588C33.9686 4.84894 27.8135 10.9387 22.9971 16.0163C18.8828 20.3428 16.2053 22.8734 15.242 23.3469C14.1808 23.8693 12.4012 23.8857 11.1277 23.3959C10.3114 23.0693 10.0992 23.0693 10.0992 23.3796C10.0992 23.6898 11.8135 24.3265 12.6298 24.3265C13.9686 24.3265 14.0665 24.5387 13.1359 25.404C11.0135 27.3632 7.69916 29.0449 5.691 29.1755C3.87876 29.3061 2.86651 28.5551 2.09916 26.5142C0.874675 23.2163 3.20937 17.8612 7.09508 15.0857C10.0012 13.0122 12.9563 12.6857 14.5726 14.253C14.9645 14.6285 15.3563 15.0857 15.4379 15.2489C15.5359 15.4122 15.6828 15.5102 15.7808 15.4449C16.091 15.2489 15.6502 14.4 14.8828 13.7306C13.5277 12.5387 12.091 12.3102 10.0339 12.9632C6.75223 14.0081 4.00937 16.4408 2.32774 19.8367C1.18488 22.1387 0.891001 24.0653 1.36447 26.0898C2.09916 29.2081 3.87876 30.2367 7.16039 29.453C8.84202 29.0612 10.393 28.2122 12.989 26.2694C15.7808 24.1796 16.8583 23.5428 18.6706 22.9387C19.389 22.6938 21.3645 21.7959 23.0461 20.9469C26.1481 19.3959 28.0094 18.6122 28.5645 18.6122C29.0216 18.6122 28.9563 18.9877 28.1563 20.9306C26.2298 25.5836 25.3481 30.0408 26.3441 30.0408C26.54 30.0408 26.589 29.7959 26.589 28.9306C26.589 27.151 27.7645 23.3796 29.3481 20C30.3767 17.8285 31.0788 17.4693 33.0706 18.1224C33.6747 18.3183 34.2461 18.5469 34.3114 18.6122C34.393 18.6775 34.1155 19.3632 33.7073 20.1469C33.0869 21.3224 32.9563 21.7142 32.9563 22.4489C32.9563 23.5591 33.0543 23.7877 33.6257 24.0816C34.6053 24.5877 36.0257 24.2285 37.789 23.004C38.1971 22.7265 38.5563 22.5306 38.5726 22.5632C38.6053 22.5796 38.7032 22.8245 38.7849 23.102C38.8665 23.3632 39.1604 23.7387 39.4379 23.9183C39.7155 24.0979 39.993 24.3755 40.042 24.5551C40.1073 24.8163 40.2216 24.8489 40.94 24.751C41.6584 24.653 41.7726 24.6857 41.7726 24.9142C41.7726 25.0612 41.2502 26.6938 40.6298 28.5224C39.4706 31.9183 38.7686 34.4 38.1971 37.2245C37.8869 38.7265 37.8869 38.7918 38.1645 39.0857C38.6543 39.5755 39.0788 39.2653 40.2379 37.6163C42.5237 34.3347 44.2379 30.1877 44.2543 27.853C44.2706 26.8081 44.2053 26.5306 43.7155 25.5673C42.9155 24 42.9318 23.9673 46.8339 21.9265C48.5808 21.0122 50.0665 20.2612 50.1318 20.2612C50.1808 20.2449 50.2135 20.8816 50.2135 21.6653C50.1808 23.053 50.1971 23.0857 50.6379 23.3306C51.0624 23.5755 51.1277 23.5591 51.9767 23.1183C52.4828 22.8571 53.3971 22.1714 54.0175 21.6C54.6379 21.0122 55.2257 20.5714 55.3237 20.604C55.5033 20.6693 54.589 22.8408 53.8216 24.1306C53.1032 25.3551 51.7318 26.7265 50.3441 27.6408C49.7073 28.0489 48.3522 29.2571 47.3073 30.3183C45.1849 32.4898 44.5481 33.5673 44.5481 34.9224C44.5481 35.6245 44.6135 35.7714 45.1196 36.2285C45.8053 36.8326 46.2788 36.9632 47.2584 36.8489C49.1686 36.6367 50.8502 34.3347 52.4665 29.7142C53.6257 26.4326 54.7849 24.9796 57.642 23.3142C58.9155 22.5632 65.3155 18.4489 65.5767 18.204C65.7073 18.0898 65.74 17.9591 65.6584 17.9102C65.5767 17.8612 63.1604 19.2816 60.3032 21.0775C55.6665 23.9673 54.6706 24.5224 54.6706 24.2449C54.6706 24.2122 55.2584 22.9387 55.9767 21.453C56.6951 19.951 57.2828 18.5469 57.2828 18.3347C57.2828 17.6816 56.793 17.6653 56.3196 18.302C56.091 18.6122 55.242 19.5428 54.4257 20.3755C51.5849 23.3306 50.2298 23.6734 50.7522 21.3224C51.1114 19.6734 51.5033 19.3632 54.0339 18.6122C55.0951 18.2857 55.3073 18.1551 55.0624 17.9102C55.0135 17.8612 54.2624 18.0571 53.3971 18.3673C52.5318 18.6612 51.7971 18.8898 51.7645 18.8571C51.7318 18.8408 51.8298 18.5469 51.9604 18.2204C52.1073 17.8612 52.14 17.6 52.042 17.5347C51.7971 17.3877 51.5033 17.7142 51.0788 18.6122L50.6869 19.4612L47.5849 20.9959L44.4992 22.5469L46.2461 20.7183C48.2706 18.5959 48.5971 18.1877 48.3359 17.9265C48.2216 17.8122 47.8624 18.0734 47.1277 18.8734C45.0216 21.1755 44.0747 22.1224 43.9767 22.0245C43.8624 21.8938 44.7114 19.5755 45.2665 18.4979C45.7073 17.6163 46.6053 16.7183 48.5481 15.1836C50.491 13.6326 55.291 8.76731 56.3359 7.26527C58.0175 4.83261 58.7686 2.88976 58.442 1.77955C58.2298 1.07751 57.4298 0.326492 56.9073 0.326492C56.7114 0.326492 56.2543 0.473431 55.8951 0.653023ZM57.5604 1.40405C57.9196 1.76323 57.9686 1.92649 57.9032 2.61221C57.6747 4.86527 54.9808 8.68567 50.8992 12.5061C49.593 13.7142 47.0135 15.7387 46.8992 15.6245C46.7849 15.5265 47.6828 13.3061 48.4502 11.7714C49.8216 9.01221 52.3032 5.06119 53.6584 3.46119C54.7033 2.22037 56.2379 0.979553 56.7277 0.979553C56.9563 0.979553 57.3155 1.17547 57.5604 1.40405ZM35.4869 5.06119C35.5359 5.14282 34.7032 6.92241 33.642 9.01221C32.5808 11.102 31.2747 13.7632 30.7522 14.9387C30.2135 16.0979 29.642 17.2245 29.4788 17.4204C29.2992 17.6163 28.5808 17.9591 27.8461 18.204C27.1277 18.4326 24.9073 19.4285 22.9318 20.3918C20.94 21.3714 19.0461 22.2857 18.6869 22.4326C18.0339 22.7102 17.4461 22.7755 17.4461 22.5796C17.4461 22.5142 18.7522 21.1755 20.3686 19.6081C21.9686 18.0245 25.0379 14.8734 27.1767 12.5877C31.0624 8.47343 34.7686 4.89792 35.1767 4.89792C35.291 4.89792 35.4379 4.96323 35.4869 5.06119ZM48.14 10.6775C48.14 10.7102 47.6339 11.7877 47.0298 13.0775C46.4094 14.3673 45.1522 17.1265 44.2379 19.2163C43.3073 21.2898 42.4257 23.1183 42.2461 23.2816C41.8053 23.6734 40.7604 23.8367 40.1726 23.5755C39.6012 23.3469 39.1114 22.6775 39.193 22.253C39.2257 22.0898 40.14 21.1265 41.2502 20.1142C42.3441 19.0857 43.242 18.204 43.242 18.1224C43.242 17.6489 42.7196 17.9755 41.1196 19.4449C40.1237 20.3591 39.2747 21.0775 39.242 21.0449C39.1604 20.9469 40.2053 17.9755 40.842 16.5551C42.442 12.9632 43.1277 11.4938 43.34 11.2653C43.5033 11.102 44.2053 10.9714 45.6584 10.8408C46.8012 10.7428 47.8298 10.6449 47.9441 10.6285C48.042 10.6285 48.14 10.6449 48.14 10.6775ZM34.8828 13.9102C35.3726 14.4 34.9318 15.6245 33.9032 16.653C33.2012 17.3551 32.6624 17.4857 32.2379 17.0449C31.8624 16.6693 31.9114 16.1632 32.4339 15.3306C33.2828 14.0081 34.3441 13.3714 34.8828 13.9102ZM43.3073 25.8612C43.8624 27.004 43.8298 28.2612 43.1767 30.3836C42.8665 31.4285 42.3441 32.8489 42.0175 33.551C41.3645 35.004 39.8951 37.2734 39.242 37.8775L38.7849 38.2857L38.8828 37.2245C39.0624 35.3959 40.7441 29.8285 42.4094 25.5836C42.6379 24.9959 42.9155 25.0775 43.3073 25.8612ZM52.4012 27.9347C51.7645 30.1061 50.4747 33.0775 49.4624 34.6612C48.5318 36.0979 46.9808 36.751 45.8543 36.1632C45.2665 35.853 45.0379 35.4612 45.0379 34.7428C45.0379 33.6489 46.9481 31.0857 49.0543 29.3387C50.1971 28.4081 52.5808 26.7591 52.6624 26.8408C52.6951 26.8571 52.5645 27.3469 52.4012 27.9347Z" fill="white"/>
</g>
</g>
</svg>
