<svg width="35" height="35" viewBox="0 0 35 35" fill="none" xmlns="http://www.w3.org/2000/svg">
<g id="&#240;&#159;&#166;&#134; icon &#34;message&#34;">
<path id="Vector" d="M29.1665 2.91663H5.83317C4.229 2.91663 2.93109 4.22913 2.93109 5.83329L2.9165 32.0833L8.74984 26.25H29.1665C30.7707 26.25 32.0832 24.9375 32.0832 23.3333V5.83329C32.0832 4.22913 30.7707 2.91663 29.1665 2.91663ZM24.7915 20.4166H10.2082C9.40609 20.4166 8.74984 19.7604 8.74984 18.9583C8.74984 18.1562 9.40609 17.5 10.2082 17.5H24.7915C25.5936 17.5 26.2498 18.1562 26.2498 18.9583C26.2498 19.7604 25.5936 20.4166 24.7915 20.4166ZM24.7915 16.0416H10.2082C9.40609 16.0416 8.74984 15.3854 8.74984 14.5833C8.74984 13.7812 9.40609 13.125 10.2082 13.125H24.7915C25.5936 13.125 26.2498 13.7812 26.2498 14.5833C26.2498 15.3854 25.5936 16.0416 24.7915 16.0416ZM24.7915 11.6666H10.2082C9.40609 11.6666 8.74984 11.0104 8.74984 10.2083C8.74984 9.40621 9.40609 8.74996 10.2082 8.74996H24.7915C25.5936 8.74996 26.2498 9.40621 26.2498 10.2083C26.2498 11.0104 25.5936 11.6666 24.7915 11.6666Z" fill="#F3E8FF"/>
</g>
</svg>
