<svg width="35" height="35" viewBox="0 0 35 35" fill="none" xmlns="http://www.w3.org/2000/svg">
<g id="pending 1">
<g id="Group">
<path id="Vector" d="M10.8499 3.07961C6.64989 5.03961 4.75989 6.99961 2.86989 11.1996C0.349889 16.7296 1.53989 24.0096 5.80989 28.6296C8.11989 31.1496 13.8599 33.5996 17.4999 33.5996C21.1399 33.5996 26.8799 31.1496 29.1899 28.6296C31.5699 26.0396 33.5999 20.9296 33.5999 17.4996C33.5999 13.8596 31.1499 8.11961 28.6299 5.80961C26.0399 3.42961 20.9299 1.3996 17.4999 1.3996C15.6099 1.3996 12.9499 2.09961 10.8499 3.07961ZM18.1999 9.79961C18.1999 12.5296 18.5499 15.3296 19.0399 16.0296C20.0199 17.6396 19.3199 19.5996 17.7099 19.5996C17.0799 19.5996 15.4699 20.5796 14.2099 21.8396C11.1999 24.7096 10.2899 23.7996 13.1599 20.7896C14.4199 19.5296 15.3999 17.9896 15.3999 17.3596C15.3999 16.7296 15.7499 15.9596 16.0999 15.7496C16.5199 15.5396 16.7999 12.9496 16.7999 10.0796C16.7999 7.06961 17.0799 4.89961 17.4999 4.89961C17.9199 4.89961 18.1999 6.99961 18.1999 9.79961Z" fill="#581C87"/>
</g>
</g>
</svg>
