<svg width="50" height="50" viewBox="0 0 50 50" fill="none" xmlns="http://www.w3.org/2000/svg">
<g id="&#240;&#159;&#166;&#134; icon &#34;people&#34;">
<path id="Vector" d="M18.75 28.6462C13.875 28.6462 4.16663 31.0837 4.16663 35.9378V39.5837H33.3333V35.9378C33.3333 31.0837 23.625 28.6462 18.75 28.6462ZM9.04163 35.417C10.7916 34.2087 15.0208 32.8128 18.75 32.8128C22.4791 32.8128 26.7083 34.2087 28.4583 35.417H9.04163ZM18.75 25.0003C22.7708 25.0003 26.0416 21.7295 26.0416 17.7087C26.0416 13.6878 22.7708 10.417 18.75 10.417C14.7291 10.417 11.4583 13.6878 11.4583 17.7087C11.4583 21.7295 14.7291 25.0003 18.75 25.0003ZM18.75 14.5837C20.4791 14.5837 21.875 15.9795 21.875 17.7087C21.875 19.4378 20.4791 20.8337 18.75 20.8337C17.0208 20.8337 15.625 19.4378 15.625 17.7087C15.625 15.9795 17.0208 14.5837 18.75 14.5837ZM33.4166 28.7712C35.8333 30.5212 37.5 32.8545 37.5 35.9378V39.5837H45.8333V35.9378C45.8333 31.7295 38.5416 29.3337 33.4166 28.7712ZM31.25 25.0003C35.2708 25.0003 38.5416 21.7295 38.5416 17.7087C38.5416 13.6878 35.2708 10.417 31.25 10.417C30.125 10.417 29.0833 10.6878 28.125 11.1462C29.4375 13.0003 30.2083 15.2712 30.2083 17.7087C30.2083 20.1462 29.4375 22.417 28.125 24.2712C29.0833 24.7295 30.125 25.0003 31.25 25.0003Z" fill="#0A0A0A"/>
</g>
</svg>
