<svg width="50" height="50" viewBox="0 0 50 50" fill="none" xmlns="http://www.w3.org/2000/svg">
<g id="&#240;&#159;&#166;&#134; icon &#34;new releases&#34;">
<path id="Vector" d="M47.9167 24.9997L42.8334 19.208L43.5417 11.5413L36.0209 9.83301L32.0834 3.20801L25 6.24967L17.9167 3.20801L13.9792 9.83301L6.45837 11.5205L7.16671 19.1872L2.08337 24.9997L7.16671 30.7913L6.45837 38.4788L13.9792 40.1872L17.9167 46.8122L25 43.7497L32.0834 46.7913L36.0209 40.1663L43.5417 38.458L42.8334 30.7913L47.9167 24.9997ZM38.5209 29.3955L39.0625 35.208L33.3542 36.4997L30.375 41.5205L25 39.208L19.625 41.5205L16.6459 36.4997L10.9375 35.208L11.4792 29.3747L7.62504 24.9997L11.4792 20.583L10.9375 14.7913L16.6459 13.5205L19.625 8.49967L25 10.7913L30.375 8.47884L33.3542 13.4997L39.0625 14.7913L38.5209 20.6038L42.375 24.9997L38.5209 29.3955ZM22.9167 31.2497H27.0834V35.4163H22.9167V31.2497ZM22.9167 14.583H27.0834V27.083H22.9167V14.583Z" fill="#0A0A0A"/>
</g>
</svg>
