<svg width="31" height="30" viewBox="0 0 31 30" fill="none" xmlns="http://www.w3.org/2000/svg">
<g id="&#240;&#159;&#166;&#134; icon &#34;search&#34;">
<path id="Vector" d="M19.8749 17.4998H18.8874L18.5374 17.1623C20.0374 15.4123 20.8124 13.0248 20.3874 10.4873C19.7999 7.01231 16.8999 4.23731 13.3999 3.81231C8.11243 3.16231 3.66243 7.61231 4.31243 12.8998C4.73743 16.3998 7.51243 19.2998 10.9874 19.8873C13.5249 20.3123 15.9124 19.5373 17.6624 18.0373L17.9999 18.3873V19.3748L23.3124 24.6873C23.8249 25.1998 24.6624 25.1998 25.1749 24.6873C25.6874 24.1748 25.6874 23.3373 25.1749 22.8248L19.8749 17.4998ZM12.3749 17.4998C9.26243 17.4998 6.74993 14.9873 6.74993 11.8748C6.74993 8.76231 9.26243 6.24981 12.3749 6.24981C15.4874 6.24981 17.9999 8.76231 17.9999 11.8748C17.9999 14.9873 15.4874 17.4998 12.3749 17.4998Z" fill="black"/>
</g>
</svg>
