<svg width="31" height="30" viewBox="0 0 31 30" fill="none" xmlns="http://www.w3.org/2000/svg">
<g id="&#240;&#159;&#166;&#134; icon &#34;settings&#34;">
<path id="Vector" d="M24.4251 16.175C24.4751 15.8 24.5001 15.4125 24.5001 15C24.5001 14.6 24.4751 14.2 24.4126 13.825L26.9501 11.85C27.1751 11.675 27.2376 11.3375 27.1001 11.0875L24.7001 6.9375C24.5501 6.6625 24.2376 6.575 23.9626 6.6625L20.9751 7.8625C20.3501 7.3875 19.6876 6.9875 18.9501 6.6875L18.5001 3.5125C18.4501 3.2125 18.2001 3 17.9001 3H13.1001C12.8001 3 12.5626 3.2125 12.5126 3.5125L12.0626 6.6875C11.3251 6.9875 10.6501 7.4 10.0376 7.8625L7.05014 6.6625C6.77514 6.5625 6.46264 6.6625 6.31264 6.9375L3.92514 11.0875C3.77514 11.35 3.82514 11.675 4.07514 11.85L6.61264 13.825C6.55014 14.2 6.50014 14.6125 6.50014 15C6.50014 15.3875 6.52514 15.8 6.58764 16.175L4.05014 18.15C3.82514 18.325 3.76264 18.6625 3.90014 18.9125L6.30014 23.0625C6.45014 23.3375 6.76264 23.425 7.03764 23.3375L10.0251 22.1375C10.6501 22.6125 11.3126 23.0125 12.0501 23.3125L12.5001 26.4875C12.5626 26.7875 12.8001 27 13.1001 27H17.9001C18.2001 27 18.4501 26.7875 18.4876 26.4875L18.9376 23.3125C19.6751 23.0125 20.3501 22.6125 20.9626 22.1375L23.9501 23.3375C24.2251 23.4375 24.5376 23.3375 24.6876 23.0625L27.0876 18.9125C27.2376 18.6375 27.1751 18.325 26.9376 18.15L24.4251 16.175ZM15.5001 19.5C13.0251 19.5 11.0001 17.475 11.0001 15C11.0001 12.525 13.0251 10.5 15.5001 10.5C17.9751 10.5 20.0001 12.525 20.0001 15C20.0001 17.475 17.9751 19.5 15.5001 19.5Z" fill="black"/>
</g>
</svg>
