<svg width="35" height="35" viewBox="0 0 35 35" fill="none" xmlns="http://www.w3.org/2000/svg">
<g id="visible 1">
<g id="Group">
<path id="Vector" d="M8.63327 8.74967C5.94994 10.2663 2.9166 12.9497 1.8666 14.583C-0.466732 18.1997 0.583268 20.7663 6.64993 25.3163C10.1499 27.9997 12.1333 28.583 17.4999 28.583C22.8666 28.583 24.8499 27.9997 28.3499 25.3163C34.4166 20.6497 35.5833 18.1997 33.1333 14.583C30.4499 10.383 22.1666 5.83301 17.3833 5.83301C15.1666 5.83301 11.1999 7.11634 8.63327 8.74967ZM22.9833 11.8997C26.3666 15.0497 26.3666 19.483 23.0999 22.983C19.9499 26.3663 15.5166 26.3663 12.0166 23.0997C8.63327 19.9497 8.63327 15.5163 11.8999 12.0163C15.0499 8.63301 19.4833 8.63301 22.9833 11.8997Z" fill="#581C87"/>
<path id="Vector_2" d="M14.4666 15.6329C13.2999 18.6662 14.9332 21.2329 17.7332 20.7662C19.7166 20.5329 20.4166 19.5995 20.4166 17.4995C20.4166 15.3995 19.7166 14.4662 17.7332 14.2329C16.2166 13.9995 14.8166 14.5829 14.4666 15.6329Z" fill="#581C87"/>
</g>
</g>
</svg>
